PathFileType	4	(X/Y/Z)	D:\TRACE\v60_Jaco2_6-2-23\v60_baseline_3-v60.trc
DataRate	CameraRate	NumFrames	NumMarkers	Units	OrigDataRate	OrigDataStartFrame	OrigNumFrames
100.00	100.00	      17	9	mm	100.00	2438	      6500
Frame#	Time	front left toe			Front right toe			aft left toe			aft right toe			Arm			FL body			FR body			AL Body			AR Body			
		X1	Y1	Z1	X2	Y2	Z2	X3	Y3	Z3	X4	Y4	Z4	X5	Y5	Z5	X6	Y6	Z6	X7	Y7	Z7	X8	Y8	Z8	X9	Y9	Z9	

2438	24.370	-162.77562	82.05069	-272.99515	212.44774	15.66309	-242.44724	-164.57231	14.29066	385.78958	217.78233	78.49569	350.45374	-91.56425	1205.47656	-388.16858	-54.50277	574.78906	-392.81668	106.24388	577.38000	-393.41660	-50.14481	558.43347	553.17438	106.87380	554.79175	553.06146	
2439	24.380	-162.74667	73.78817	-274.39816	212.47708	15.61014	-242.58890	-164.52249	14.32131	385.76340	217.69186	69.98544	348.38211	-91.11410	1205.50696	-389.62396	-53.63471	574.60925	-393.69922	106.37182	577.44983	-394.68143	-49.83326	558.29535	552.32813	107.14347	554.80786	551.83173	
2440	24.390	-162.78012	65.72901	-275.70697	212.49518	15.55696	-242.66426	-164.47980	14.29197	385.68289	217.73674	61.90474	346.91260	-90.23066	1205.48743	-390.54800	-53.94994	574.81226	-394.98047	106.63371	577.48590	-395.91644	-50.38819	558.89166	551.14203	107.11329	554.74219	550.62347	
2441	24.400	-162.78955	58.06274	-277.00674	212.55141	15.47338	-242.75096	-164.47670	14.31076	385.51749	218.45459	54.10084	345.46103	-90.24137	1205.54333	-391.89163	-52.54979	574.35516	-396.03134	107.03522	577.39490	-397.09027	-50.28124	558.88300	549.88336	107.17676	554.75854	549.46906	
2442	24.410	-162.91220	50.62721	-278.04120	212.57161	15.42616	-242.83247	-164.54021	14.50577	385.34082	218.67674	46.98990	343.99570	-89.88136	1205.33789	-393.79443	-52.59844	574.33813	-397.25861	107.38853	577.30359	-398.32901	-49.94700	559.16943	549.07703	107.56379	554.85870	548.26483	
2443	24.420	-163.08623	43.61426	-279.09250	212.59189	15.43493	-242.87190	-164.51387	14.53451	385.28378	218.59540	40.27402	342.87253	-88.97705	1205.78027	-394.11597	-52.87444	574.91785	-399.04437	107.22746	577.23206	-399.10068	-49.93732	559.14569	547.50995	107.48740	554.65753	547.06641	
2444	24.430	-163.12633	37.51965	-280.03864	212.66493	15.45031	-242.93053	-164.49791	14.65651	385.23355	218.20313	33.72343	341.87064	-88.90096	1205.61414	-395.59415	-52.81052	574.96295	-400.14694	107.87929	577.42358	-400.84839	-49.73906	559.05219	546.08557	108.00390	554.79327	545.81677	
2445	24.440	-163.36472	31.47668	-281.32687	212.77054	15.48814	-242.97270	-164.52060	14.73585	385.17340	218.17729	27.06623	340.82730	-88.05424	1205.53613	-397.58728	-52.19992	575.01398	-401.37601	107.60810	577.42627	-401.60300	-49.52909	559.06091	545.35309	108.33937	554.78485	544.53876	
2446	24.450	-163.23123	24.86388	-282.69482	212.79539	15.45078	-243.03220	-164.53516	14.73200	385.09796	218.50807	20.35721	339.56137	-88.15123	1205.78918	-398.11215	-51.37829	574.78680	-402.45654	108.09714	577.32928	-402.98621	-49.32558	558.86963	543.66248	109.04135	554.78998	546.64215	
2447	24.460	-163.19940	19.89117	-284.43231	212.67819	15.31456	-243.07260	-164.58157	14.71185	385.11420	219.27876	20.21042	336.91678	-87.43247	1205.65979	-399.98154	-50.70246	574.73962	-403.65408	108.34413	577.42670	-404.25970	-49.39549	559.04694	542.31195	107.63507	554.87384	543.34247	
2448	24.470	-164.59718	19.39487	-285.23996	212.62868	15.19438	-243.13591	-164.65218	14.84870	384.96078	219.35684	17.71869	337.83969	-87.04034	1205.97449	-401.10773	-51.24725	574.87329	-405.27145	108.69572	577.59833	-405.41971	-49.50281	559.82123	541.38678	107.66967	555.94873	542.19171	
2449	24.480	-164.66566	18.80134	-284.72751	212.63910	15.31769	-243.02643	-164.69685	15.21832	384.90601	219.70763	18.95563	337.36832	-86.65235	1206.31750	-402.91345	-50.91032	575.63641	-406.44785	109.04417	578.05182	-406.65359	-49.43412	561.40753	540.08972	107.54422	557.18726	541.08331	
2450	24.490	-164.13547	18.95001	-285.31186	212.82373	16.05533	-243.34242	-164.84834	15.96568	384.43280	219.08238	19.03984	339.02457	-86.37557	1207.21179	-404.37305	-50.10056	577.08929	-407.33301	110.40222	579.01691	-407.69318	-49.14713	562.87604	539.63831	107.69711	558.22162	540.21771	
2451	24.500	-163.39474	19.38375	-284.50095	211.45148	18.85427	-243.51659	-164.34816	18.45483	383.52872	218.93745	17.86612	338.46964	-85.55807	1208.16919	-407.18967	-50.02942	578.80798	-408.59787	110.60349	580.46136	-408.35919	-49.64001	562.85834	537.98016	107.52904	558.41644	539.08594	
2452	24.510	-163.68254	19.34774	-285.23334	207.62314	22.67109	-241.40225	-161.87898	20.97800	384.29938	219.28470	17.58156	338.01337	-83.90398	1209.11670	-408.09827	-49.28753	579.77484	-409.75317	111.22886	581.99146	-409.87616	-49.96605	562.75818	536.60083	107.91066	558.42346	536.63287	
2453	24.520	-163.61154	19.06175	-285.25925	204.78448	29.57403	-240.31226	-158.02321	28.24604	383.54428	219.26346	17.62738	338.14832	-82.21228	1210.77600	-407.55777	-49.17748	580.46442	-411.43893	111.29812	582.36169	-411.39285	-50.09407	563.08801	535.04449	107.68862	558.70038	535.27863	
2454	24.530	-163.93726	18.96481	-285.75781	203.53648	37.52966	-240.27301	-154.28371	35.54502	383.26508	219.16234	17.72130	337.96103	-80.64796	1212.39233	-407.80054	-48.32373	580.43994	-412.32727	111.12408	582.42993	-412.37378	-49.30255	563.19958	533.79810	107.59238	558.97992	533.89886	
